<svg width="45" height="53" viewBox="0 0 45 53" fill="none" xmlns="http://www.w3.org/2000/svg">
<rect y="20" width="45" height="33" rx="6" fill="#676565"/>
<line x1="2.58124" y1="21.1863" x2="23.5812" y2="36.1863" stroke="black" stroke-width="2"/>
<path d="M43 21.5L22.3098 36.3924" stroke="black" stroke-width="2"/>
<path d="M24.0607 0.939341C23.4749 0.353554 22.5251 0.353554 21.9393 0.939341L12.3934 10.4853C11.8076 11.0711 11.8076 12.0208 12.3934 12.6066C12.9792 13.1924 13.9289 13.1924 14.5147 12.6066L23 4.12132L31.4853 12.6066C32.0711 13.1924 33.0208 13.1924 33.6066 12.6066C34.1924 12.0208 34.1924 11.0711 33.6066 10.4853L24.0607 0.939341ZM24.5 28L24.5 2H21.5L21.5 28H24.5Z" fill="black"/>
</svg>
