<svg width="26" height="26" viewBox="0 0 26 26" fill="none" xmlns="http://www.w3.org/2000/svg">
<rect width="26" height="25" rx="4" fill="#C4C4C4"/>
<circle cx="13" cy="12" r="4" fill="#A8A8A8"/>
<circle cx="13" cy="12" r="4" fill="#A8A8A8"/>
<path d="M22 22.5C22 26.6421 13.5 24.5 13.5 24.5C8.52944 24.5 4 26.6421 4 22.5C4 18.3579 8.02944 15 13 15C17.9706 15 22 18.3579 22 22.5Z" fill="#A8A8A8"/>
<path d="M22 22.5C22 26.6421 13.5 24.5 13.5 24.5C8.52944 24.5 4 26.6421 4 22.5C4 18.3579 8.02944 15 13 15C17.9706 15 22 18.3579 22 22.5Z" fill="#A8A8A8"/>
</svg>
